<svg width="36" height="34" viewBox="0 0 36 34" fill="none" xmlns="http://www.w3.org/2000/svg">
<mask id="mask0_2028_8002" style="mask-type:alpha" maskUnits="userSpaceOnUse" x="0" y="0" width="36" height="34">
<rect width="36" height="34" fill="#D9D9D9"/>
</mask>
<g mask="url(#mask0_2028_8002)">
<path d="M28 17V30H8V17" stroke="#AF895B" stroke-width="1.5" stroke-linecap="round" stroke-linejoin="round"/>
<path d="M31 10H6V16H31V10Z" stroke="#AF895B" stroke-width="1.5" stroke-linecap="round" stroke-linejoin="round"/>
<path d="M18 29V10" stroke="#AF895B" stroke-width="1.5" stroke-linecap="round" stroke-linejoin="round"/>
<path d="M18 10H12.2143C11.3618 10 10.5442 9.68393 9.94144 9.12132C9.33865 8.55871 9 7.79565 9 7C9 6.20435 9.33865 5.44129 9.94144 4.87868C10.5442 4.31607 11.3618 4 12.2143 4C16.7143 4 18 10 18 10Z" stroke="#AF895B" stroke-width="1.5" stroke-linecap="round" stroke-linejoin="round"/>
<path d="M18 10H23.7857C24.6382 10 25.4558 9.68393 26.0586 9.12132C26.6614 8.55871 27 7.79565 27 7C27 6.20435 26.6614 5.44129 26.0586 4.87868C25.4558 4.31607 24.6382 4 23.7857 4C19.2857 4 18 10 18 10Z" stroke="#AF895B" stroke-width="1.5" stroke-linecap="round" stroke-linejoin="round"/>
</g>
</svg>
